# xmcd
#
# Track frame offsets: 
#        150
#        29398
#        59021
#        74568
#        98112
#        133113
#        151134
#        173262
#        194586
#
# Disc length: 3002 seconds
#
# Revision: 0
# Processed by: cddbd v1.5PL3 Copyright (c) Steve Scherf et al.
# Submitted via: ExactAudioCopy v0.95a4
#
DISCID=7b0bb809
DTITLE=wuxing music - wu xing
DYEAR=2003
DGENRE=
TTITLE0=Liuli Guang
TTITLE1=Gen
TTITLE2=Xiao Biaomei
TTITLE3=Ziyou Niao
TTITLE4=Shui Cai
TTITLE5=Bo
TTITLE6=Mi Yue
TTITLE7=Xun Xiang
TTITLE8=Gu Xiang de He
EXTD=
EXTT0=
EXTT1=
EXTT2=
EXTT3=
EXTT4=
EXTT5=
EXTT6=
EXTT7=
EXTT8=
PLAYORDER=
